<svg xmlns="http://www.w3.org/2000/svg" width="24" height="24" fill="none" viewBox="0 0 24 24" id="playlist">
  <path fill="#6d6d6d" fill-rule="evenodd"
    d="M15.75 5C15.75 5.41421 15.4142 5.75 15 5.75L3 5.75C2.58579 5.75 2.25 5.41421 2.25 5 2.25 4.58579 2.58579 4.25 3 4.25L15 4.25C15.4142 4.25 15.75 4.58579 15.75 5zM13.75 9C13.75 9.41421 13.4142 9.75 13 9.75L3 9.75C2.58579 9.75 2.25 9.41421 2.25 9 2.25 8.58579 2.58579 8.25 3 8.25L13 8.25C13.4142 8.25 13.75 8.58579 13.75 9zM9.75 13C9.75 13.4142 9.41421 13.75 9 13.75H3C2.58579 13.75 2.25 13.4142 2.25 13 2.25 12.5858 2.58579 12.25 3 12.25H9C9.41421 12.25 9.75 12.5858 9.75 13zM8.75 17C8.75 17.4142 8.41421 17.75 8 17.75H3C2.58579 17.75 2.25 17.4142 2.25 17 2.25 16.5858 2.58579 16.25 3 16.25H8C8.41421 16.25 8.75 16.5858 8.75 17z"
    clip-rule="evenodd"></path>
  <path fill="#1ed760" fill-rule="evenodd"
    d="M16.75 10V16.4286C16.75 18.2429 15.3147 19.75 13.5 19.75C11.6853 19.75 10.25 18.2429 10.25 16.4286C10.25 14.6143 11.6853 13.1071 13.5 13.1071C14.1477 13.1071 14.747 13.2991 15.25 13.6285V10H16.75ZM15.25 16.4286C15.25 15.4026 14.4467 14.6071 13.5 14.6071C12.5533 14.6071 11.75 15.4026 11.75 16.4286C11.75 17.4546 12.5533 18.25 13.5 18.25C14.4467 18.25 15.25 17.4546 15.25 16.4286Z"
    clip-rule="evenodd"></path>
  <path fill="#1ed760" fill-rule="evenodd"
    d="M19.8632 7.40042C19.667 7.47273 19.4084 7.59599 18.9996 7.79218L17.2451 8.63435C17.0656 8.72049 16.9633 8.77002 16.8888 8.812C16.843 8.83779 16.8253 8.85127 16.8207 8.8551C16.7963 8.88021 16.7775 8.91016 16.7654 8.94302C16.7639 8.94879 16.7594 8.97058 16.756 9.02303C16.7504 9.1084 16.75 9.22207 16.75 9.42114C16.75 9.87452 16.7508 10.161 16.7706 10.3692C16.7827 10.4973 16.7991 10.5514 16.8045 10.5666C16.8397 10.6109 16.889 10.6419 16.9443 10.6545C16.9603 10.6528 17.0161 10.6442 17.1368 10.5997C17.3331 10.5274 17.5917 10.4041 18.0004 10.2079L19.7549 9.36577C19.9344 9.27963 20.0367 9.2301 20.1113 9.18812C20.1571 9.16233 20.1748 9.14885 20.1793 9.14503M20.2342 9.05876C20.2342 9.05873 20.2343 9.05814 20.2347 9.05713L20.2342 9.05876ZM20.2347 9.05713C20.2361 9.05136 20.2406 9.02954 20.2441 8.97709C20.2497 8.89172 20.25 8.77805 20.25 8.57898C20.25 8.12559 20.2492 7.83909 20.2295 7.63088C20.2174 7.50283 20.201 7.44873 20.1956 7.43356C20.1603 7.38925 20.111 7.35823 20.0558 7.34559C20.0398 7.34732 19.9839 7.35595 19.8632 7.40042M20.1806 9.14387C20.1807 9.14387 20.1802 9.14428 20.1793 9.14503L20.1806 9.14387ZM16.7659 8.94136C16.7659 8.9414 16.7657 8.94205 16.7654 8.94302L16.7659 8.94136ZM16.8194 8.85625C16.8194 8.85626 16.8198 8.85585 16.8207 8.8551L16.8194 8.85625ZM19.3446 5.99292C19.6233 5.89026 19.9559 5.80218 20.3149 5.86786C20.7572 5.94876 21.1514 6.19678 21.4157 6.56049C21.6302 6.85575 21.6948 7.19373 21.7228 7.48934C21.7501 7.77705 21.75 8.13583 21.75 8.54464L21.75 8.57898C21.75 8.60402 21.7501 8.62923 21.7502 8.65459C21.7509 8.9547 21.7518 9.27521 21.6441 9.5705C21.559 9.8036 21.4254 10.016 21.2521 10.1935C21.0325 10.4184 20.7432 10.5563 20.4723 10.6855C20.4494 10.6964 20.4266 10.7072 20.404 10.7181L18.6186 11.5751C18.25 11.752 17.9266 11.9073 17.6554 12.0072C17.3768 12.1099 17.0442 12.1979 16.6851 12.1323C16.2429 12.0514 15.8487 11.8033 15.5844 11.4396C15.3698 11.1444 15.3053 10.8064 15.2773 10.5108C15.25 10.2231 15.25 9.86428 15.25 9.45547C15.25 9.44407 15.25 9.43262 15.25 9.42114C15.25 9.3961 15.25 9.37089 15.2499 9.34553C15.2491 9.04542 15.2483 8.72491 15.356 8.42963C15.441 8.19652 15.5746 7.98416 15.748 7.80664C15.9676 7.58176 16.2569 7.44382 16.5278 7.31467C16.5507 7.30375 16.5734 7.2929 16.596 7.28206L18.3505 6.43989C18.3609 6.43493 18.3712 6.42997 18.3815 6.42504C18.75 6.24811 19.0735 6.09284 19.3446 5.99292Z"
    clip-rule="evenodd"></path>
</svg>
